<svg width="36" height="37" fill="none" xmlns="http://www.w3.org/2000/svg"><path d="M19.38 3.415l9.765 5.304c1.14.62 1.14 2.387 0 3.007l-9.765 5.303c-.87.469-1.89.469-2.76 0l-9.765-5.303c-1.14-.62-1.14-2.388 0-3.007l9.765-5.304a2.886 2.886 0 012.76 0zM5.415 15.307l9.075 4.578a3.385 3.385 0 011.845 3.007v8.644a1.664 1.664 0 01-2.415 1.496l-9.075-4.579A3.385 3.385 0 013 25.446v-8.643a1.664 1.664 0 012.415-1.496zm25.17 0l-9.075 4.578a3.385 3.385 0 00-1.845 3.007v8.644a1.664 1.664 0 002.415 1.496l9.075-4.579A3.385 3.385 0 0033 25.446v-8.643a1.664 1.664 0 00-2.415-1.496z" stroke="#fff" stroke-width="3" stroke-linecap="round" stroke-linejoin="round"/></svg>