<svg width="36" height="36" fill="none" xmlns="http://www.w3.org/2000/svg"><path d="M12.57 18l3.615 3.63 7.245-7.26" stroke="#fff" stroke-width="3" stroke-linecap="round" stroke-linejoin="round"/><path d="M16.125 3.675c1.035-.885 2.73-.885 3.78 0l2.37 2.04c.45.39 1.29.705 1.89.705h2.55a2.906 2.906 0 012.895 2.895v2.55c0 .585.315 1.44.705 1.89l2.04 2.37c.885 1.035.885 2.73 0 3.78l-2.04 2.37c-.39.45-.705 1.29-.705 1.89v2.55a2.906 2.906 0 01-2.895 2.895h-2.55c-.585 0-1.44.315-1.89.705l-2.37 2.04c-1.035.885-2.73.885-3.78 0l-2.37-2.04c-.45-.39-1.29-.705-1.89-.705H9.27a2.906 2.906 0 01-2.895-2.895V24.15c0-.585-.315-1.425-.69-1.875L3.66 19.89c-.87-1.035-.87-2.715 0-3.75l2.025-2.385c.375-.45.69-1.29.69-1.875V9.3A2.906 2.906 0 019.27 6.405h2.595c.585 0 1.44-.315 1.89-.705l2.37-2.025z" stroke="#fff" stroke-width="3" stroke-linecap="round" stroke-linejoin="round"/></svg>